<svg xmlns="http://www.w3.org/2000/svg" width="26" height="26" style=""><rect id="backgroundrect" width="100%" height="100%" x="0" y="0" fill="none" stroke="none" class="" style=""/>

<g class="currentLayer" style=""><title>Layer 1</title><path d="m13.000000213847287,0.30113315179214023 c-7.013682486461364,0 -12.698868011698847,5.685185525237483 -12.698868011698847,12.698868011698847 s5.685185525237483,12.698868011698847 12.698868011698847,12.698868011698847 s12.698868011698847,-5.685185525237483 12.698868011698847,-12.698868011698847 s-5.685185525237483,-12.698868011698847 -12.698868011698847,-12.698868011698847 zm1.9917686058349187,17.371074604003123 c-0.9582761168828131,1.4388794293255698 -1.9331584457809243,2.5475882903469684 -3.5732660912918752,2.5475882903469684 c-1.1194540570312985,-0.18266833216828385 -1.5795438134551567,-0.9846506889071105 -1.3372884852319786,-1.8022624216603358 l2.1099657619438084,-6.9882847504379635 c0.05177230804769551,-0.17094630015748508 -0.034189260031497054,-0.3536146323257687 -0.19048302017548338,-0.4092942843770636 c-0.1553169241430862,-0.05470281605039519 -0.46008975642385797,0.14750223613588687 -0.723835476666836,0.4366456924022608 l-1.2757478171752843,1.5346093574137618 c-0.034189260031497054,-0.2578847042375776 -0.003907344003599661,-0.6837852006299395 -0.003907344003599661,-0.8557083367883231 c0.9582761168828131,-1.4388794293255698 2.5329357503334697,-2.5739628623712663 3.6006174993170736,-2.5739628623712663 c1.0149326049350078,0.10354461609539087 1.4955359173777643,0.9152953328432176 1.3187286012148816,1.807146601664836 l-2.124618301957307,7.0224740104694625 c-0.028328244026097654,0.1582474321457865 0.05567965205129506,0.31942537229427237 0.1992745441835822,0.37022084434106706 c0.15629376014398622,0.05470281605039519 0.48451065644635516,-0.14750223613588687 0.7492332126902328,-0.4366456924022608 l1.2747709811743841,-1.5336325214128603 c0.034189260031497054,0.2578847042375776 -0.023444064021597964,0.7091829366533356 -0.023444064021597964,0.8811060728117206 zm-0.2842592762618748,-9.12755559240877 c-0.8068665367433269,0 -1.4613466573462681,-0.5880552725417482 -1.4613466573462681,-1.453531969339068 s0.6544801206029405,-1.4525551333381683 1.4613466573462681,-1.4525551333381683 s1.4613466573462681,0.5880552725417482 1.4613466573462681,1.4525551333381683 c0,0.8664535327982213 -0.6544801206029405,1.453531969339068 -1.4613466573462681,1.453531969339068 z" id="svg_1" class="" fill="#eb1a1a" fill-opacity="1"/></g></svg>