<svg xmlns="http://www.w3.org/2000/svg" width="25" height="25" fill="none"><rect id="backgroundrect" width="100%" height="100%" x="0" y="0" fill="none" stroke="none"/>

<g class="currentLayer" style=""><title>Layer 1</title><path d="M12.500000006402955,0.1691732388135626 C19.31006953097087,0.1691732388135626 24.830827710770148,5.689869150498122 24.830827710770148,12.49999957182577 C24.830827710770148,19.310068339021754 19.31006953097087,24.830825904837976 12.500000006402955,24.830825904837976 C5.689868827696519,24.830825904837976 0.16917230203576258,19.310068339021754 0.16917230203576258,12.49999957182577 C0.16917230203576258,5.689869150498122 5.689868827696519,0.1691732388135626 12.500000006402955,0.1691732388135626 zM16.470156602378054,8.76335227565408 L10.958646543357055,14.274775405936216 L8.529880402910964,11.846095851386133 C8.168722790277751,11.484925948092208 7.583156444252763,11.484925948092208 7.221998831619555,11.846095851386133 C6.860841218986341,12.207265754680057 6.860841218986341,12.792733388971483 7.221998831619555,13.153903292265406 L10.304742750194462,16.23660987551846 C10.665912693655377,16.597779778812388 11.251380393058733,16.597779778812388 11.612550336519648,16.23660987551846 L17.777964188703248,10.071196709012355 C18.139134132164163,9.710076129023756 18.139134132164163,9.124509848121678 17.777964188703248,8.76335227565408 C17.41679424524233,8.402194703186485 16.831326545838976,8.402194703186485 16.470156602378054,8.76335227565408 z" fill="#0bd50b" id="svg_1" class="selected" fill-opacity="1"/></g></svg>